<svg width="130" height="130" viewBox="0 0 130 130" fill="none" xmlns="http://www.w3.org/2000/svg">
<rect width="130" height="130" rx="17" fill="url(#paint0_linear_780_5855)"/>
<path d="M58.0938 87.8929C53.6079 87.407 43.1901 86.114 34.6373 74.6416C25.8052 62.7904 18 57.8489 18 57.8489C18 57.8489 25.4519 55.6417 34.818 65.8211C43.9706 75.7699 49.4096 83.9645 58.0938 87.8929Z" fill="#38D200"/>
<path d="M77.9846 89.5807C72.0445 88.9383 58.2499 87.2253 46.9283 72.0303C35.237 56.3412 24.9014 49.7938 24.9014 49.7938C24.9014 49.7938 34.7687 46.8784 47.1666 60.352C59.2851 73.5292 66.4823 84.3839 77.9846 89.5807Z" fill="white"/>
<path d="M110.988 80.1757C110.224 84.6889 107.25 87.4478 103.175 89.1115C101.721 89.7044 100.234 90.0998 98.7054 90.3386C98.007 90.4457 97.3005 90.528 96.5857 90.5774C95.7805 90.6351 94.9671 90.6516 94.1538 90.6433C87.9178 90.6927 82.3967 88.6091 77.2946 85.1089C73.7453 82.6711 70.6233 79.8051 67.7066 76.7331C65.2007 74.0977 62.8428 71.314 60.4848 68.5221C60.4026 68.4233 60.3205 68.3327 60.2383 68.2339C48.4813 52.5695 37.8581 44.169 34.0212 41.3936C33.0353 40.6853 32.5013 40.3394 32.5013 40.3394C32.5013 40.3394 43.6914 37.0287 58.2336 51.0871C59.0963 51.9271 59.9754 52.8248 60.8627 53.7884C65.2336 58.5404 69.1033 63.0536 72.7348 67.2373C75.3557 70.4081 78.0176 73.5459 80.9754 76.412C81.2465 76.6755 81.5176 76.9308 81.7887 77.1861C86.0693 81.1969 91.2371 82.9182 97.1033 82.2099C98.7958 82.004 100.225 81.1805 101.228 79.7392C102.731 77.565 101.901 74.9213 99.412 74.0236C97.1772 73.2165 94.8028 73.2906 92.4941 72.9694C89.52 72.5494 86.6115 71.9153 83.9167 70.5234C80.1538 68.588 78.2312 65.4172 78.1327 61.2582C78.0341 57.0744 79.8744 53.7719 83.5223 51.7377C89.5939 48.3528 96.027 48.2375 102.575 50.1482C104.44 50.6918 106.133 51.5895 107.727 52.6848L103.076 59.3475C103.043 59.3228 103.002 59.2981 102.961 59.2652C99.0669 56.4568 94.7453 56.1438 90.243 57.3627C88.2794 57.898 87.4085 59.0346 87.3592 60.7641C87.3099 62.3289 88.2793 63.6219 90.0951 64.3548C91.8286 65.0549 93.6772 65.1455 95.5094 65.3184C98.2946 65.582 101.063 65.9279 103.734 66.875C109.838 69.0163 112.032 74.0318 110.988 80.1757Z" fill="white"/>
<defs>
<linearGradient id="paint0_linear_780_5855" x1="0" y1="64.9998" x2="130" y2="64.9998" gradientUnits="userSpaceOnUse">
<stop stop-color="#233285"/>
<stop offset="1" stop-color="#0951C9"/>
</linearGradient>
</defs>
</svg>
